<?xml version="1.0" standalone="no"?>
<!DOCTYPE svg PUBLIC "-//W3C//DTD SVG 20010904//EN"
 "http://www.w3.org/TR/2001/REC-SVG-20010904/DTD/svg10.dtd">
<svg version="1.0" xmlns="http://www.w3.org/2000/svg"
 width="192.000000pt" height="192.000000pt" viewBox="0 0 192.000000 192.000000"
 preserveAspectRatio="xMidYMid meet">
<metadata>
Created by potrace 1.11, written by Peter Selinger 2001-2013
</metadata>
<g transform="translate(0.000000,192.000000) scale(0.100000,-0.100000)"
fill="#000000" stroke="none">
<path d="M635 1661 c3 -58 8 -122 10 -141 7 -67 9 -140 4 -145 -3 -2 -79 25
-169 61 -89 36 -166 62 -171 57 -6 -6 -100 -280 -104 -303 -1 -3 -23 -71 -50
-152 -27 -81 -46 -150 -43 -153 4 -4 80 -27 170 -52 90 -24 166 -47 170 -51 3
-4 -50 -74 -118 -157 -68 -82 -124 -152 -124 -155 0 -3 24 -22 53 -42 28 -20
149 -106 267 -191 118 -86 218 -153 221 -151 4 2 48 72 99 154 50 83 95 150
100 150 5 0 19 -17 30 -38 25 -45 156 -252 167 -263 10 -10 528 364 528 381 0
7 -194 265 -222 295 -14 14 -8 16 240 85 64 18 117 36 117 40 0 4 -32 99 -71
211 -39 112 -85 245 -101 294 -17 50 -34 94 -39 99 -7 8 -76 -16 -174 -59 -16
-7 -56 -25 -89 -39 -32 -14 -60 -26 -61 -26 -2 0 -2 17 0 38 4 53 14 194 20
283 l5 75 -335 0 -336 0 6 -105z"/>
</g>
</svg>
